<mxfile host="app.diagrams.net" modified="2024-07-21T18:26:09.565Z" agent="Mozilla/5.0 (Windows NT 10.0; Win64; x64) AppleWebKit/537.36 (KHTML, like Gecko) Chrome/126.0.0.0 Safari/537.36" etag="8j-MUXO5qt139bnQ3BHD" version="24.7.1" type="google">
  <diagram name="Page-1" id="jYGtpfeb4U5llzFaTOck">
    <mxGraphModel dx="429" dy="213" grid="1" gridSize="10" guides="1" tooltips="1" connect="1" arrows="1" fold="1" page="1" pageScale="1" pageWidth="850" pageHeight="1100" math="0" shadow="0">
      <root>
        <mxCell id="0" />
        <mxCell id="1" parent="0" />
        <mxCell id="2eTarxXeQCqfxXBGuiIj-1" value="" style="rounded=1;whiteSpace=wrap;html=1;" vertex="1" parent="1">
          <mxGeometry x="370" y="220" width="370" height="110" as="geometry" />
        </mxCell>
        <mxCell id="2eTarxXeQCqfxXBGuiIj-2" value="&lt;font color=&quot;#ff66b3&quot;&gt;&lt;b&gt;C1 C2 C3 C4 C5&lt;/b&gt;&lt;/font&gt;" style="text;strokeColor=none;fillColor=none;align=left;verticalAlign=middle;spacingLeft=4;spacingRight=4;overflow=hidden;points=[[0,0.5],[1,0.5]];portConstraint=eastwest;rotatable=0;whiteSpace=wrap;html=1;" vertex="1" parent="1">
          <mxGeometry x="390" y="280" width="110" height="30" as="geometry" />
        </mxCell>
        <mxCell id="2eTarxXeQCqfxXBGuiIj-4" value="" style="endArrow=none;html=1;rounded=0;exitX=0.079;exitY=0.182;exitDx=0;exitDy=0;exitPerimeter=0;" edge="1" parent="1">
          <mxGeometry width="50" height="50" relative="1" as="geometry">
            <mxPoint x="400" y="260.02" as="sourcePoint" />
            <mxPoint x="470" y="260" as="targetPoint" />
          </mxGeometry>
        </mxCell>
        <mxCell id="2eTarxXeQCqfxXBGuiIj-5" value="" style="endArrow=classic;html=1;rounded=0;entryX=0.097;entryY=0.028;entryDx=0;entryDy=0;entryPerimeter=0;" edge="1" parent="1" target="2eTarxXeQCqfxXBGuiIj-2">
          <mxGeometry width="50" height="50" relative="1" as="geometry">
            <mxPoint x="400" y="260" as="sourcePoint" />
            <mxPoint x="500" y="270" as="targetPoint" />
          </mxGeometry>
        </mxCell>
        <mxCell id="2eTarxXeQCqfxXBGuiIj-7" value="" style="endArrow=classic;html=1;rounded=0;entryX=0.097;entryY=0.028;entryDx=0;entryDy=0;entryPerimeter=0;" edge="1" parent="1">
          <mxGeometry width="50" height="50" relative="1" as="geometry">
            <mxPoint x="470" y="260" as="sourcePoint" />
            <mxPoint x="470" y="281" as="targetPoint" />
          </mxGeometry>
        </mxCell>
        <mxCell id="2eTarxXeQCqfxXBGuiIj-8" value="&lt;font style=&quot;font-size: 11px;&quot;&gt;&lt;b&gt;COMMAND&lt;/b&gt;&lt;/font&gt;" style="text;strokeColor=none;fillColor=none;align=left;verticalAlign=middle;spacingLeft=4;spacingRight=4;overflow=hidden;points=[[0,0.5],[1,0.5]];portConstraint=eastwest;rotatable=0;whiteSpace=wrap;html=1;" vertex="1" parent="1">
          <mxGeometry x="400" y="230" width="70" height="30" as="geometry" />
        </mxCell>
        <mxCell id="2eTarxXeQCqfxXBGuiIj-9" value="&lt;font color=&quot;#00ccff&quot;&gt;&lt;b&gt;M1 M2 M3 M4&amp;nbsp; &amp;nbsp; &amp;nbsp; &amp;nbsp; &amp;nbsp;...&amp;nbsp; &amp;nbsp; &amp;nbsp; &amp;nbsp; &amp;nbsp; &amp;nbsp; M_N&lt;/b&gt;&lt;/font&gt;" style="text;strokeColor=none;fillColor=none;align=left;verticalAlign=middle;spacingLeft=4;spacingRight=4;overflow=hidden;points=[[0,0.5],[1,0.5]];portConstraint=eastwest;rotatable=0;whiteSpace=wrap;html=1;" vertex="1" parent="1">
          <mxGeometry x="530" y="285" width="210" height="20" as="geometry" />
        </mxCell>
        <mxCell id="2eTarxXeQCqfxXBGuiIj-12" value="&lt;font style=&quot;font-size: 11px;&quot;&gt;&lt;b&gt;&amp;lt;sep&amp;gt;&lt;/b&gt;&lt;/font&gt;" style="text;strokeColor=none;fillColor=none;align=left;verticalAlign=middle;spacingLeft=4;spacingRight=4;overflow=hidden;points=[[0,0.5],[1,0.5]];portConstraint=eastwest;rotatable=0;whiteSpace=wrap;html=1;" vertex="1" parent="1">
          <mxGeometry x="480" y="250" width="70" height="30" as="geometry" />
        </mxCell>
        <mxCell id="2eTarxXeQCqfxXBGuiIj-13" value="" style="endArrow=classic;html=1;rounded=0;entryX=0.097;entryY=0.028;entryDx=0;entryDy=0;entryPerimeter=0;" edge="1" parent="1">
          <mxGeometry width="50" height="50" relative="1" as="geometry">
            <mxPoint x="540" y="260" as="sourcePoint" />
            <mxPoint x="540" y="281" as="targetPoint" />
          </mxGeometry>
        </mxCell>
        <mxCell id="2eTarxXeQCqfxXBGuiIj-14" value="" style="endArrow=classic;html=1;rounded=0;entryX=0.097;entryY=0.028;entryDx=0;entryDy=0;entryPerimeter=0;" edge="1" parent="1">
          <mxGeometry width="50" height="50" relative="1" as="geometry">
            <mxPoint x="710" y="260" as="sourcePoint" />
            <mxPoint x="710" y="281" as="targetPoint" />
          </mxGeometry>
        </mxCell>
        <mxCell id="2eTarxXeQCqfxXBGuiIj-16" value="" style="endArrow=none;html=1;rounded=0;" edge="1" parent="1">
          <mxGeometry width="50" height="50" relative="1" as="geometry">
            <mxPoint x="540" y="260" as="sourcePoint" />
            <mxPoint x="710" y="260" as="targetPoint" />
          </mxGeometry>
        </mxCell>
        <mxCell id="2eTarxXeQCqfxXBGuiIj-17" value="&lt;font style=&quot;font-size: 11px;&quot;&gt;&lt;b&gt;MUSIC&lt;/b&gt;&lt;/font&gt;" style="text;strokeColor=none;fillColor=none;align=left;verticalAlign=middle;spacingLeft=4;spacingRight=4;overflow=hidden;points=[[0,0.5],[1,0.5]];portConstraint=eastwest;rotatable=0;whiteSpace=wrap;html=1;" vertex="1" parent="1">
          <mxGeometry x="600" y="230" width="70" height="30" as="geometry" />
        </mxCell>
      </root>
    </mxGraphModel>
  </diagram>
</mxfile>
